<svg width="2384" height="811" viewBox="0 0 2384 811" fill="none" xmlns="http://www.w3.org/2000/svg">
<path d="M148.414 218.868L262.633 179.657L234.638 242.395L278.31 312.976L234.638 375.715L159.612 360.03L129.378 316.337L145.055 298.412H170.81L198.805 271.524L176.409 263.681L129.378 264.802L117.06 274.885L123.779 291.69L81.2268 333.142L117.06 321.939L178.649 403.723H154.013L112.581 431.731L34.1956 417.167L21.8778 386.918L25.2372 368.993L65.5497 344.345L15.1591 351.067L9.56014 368.993L0.601807 344.345L101.383 274.885L96.9039 256.959L148.414 218.868Z" fill="#C8973A"/>
<path d="M126.018 447.416H44.2737L42.0341 491.109L86.8258 539.283L81.2268 500.072L157.373 474.304L126.018 447.416Z" fill="#C8973A"/>
<path d="M316.383 399.242L332.06 360.03L342.138 444.055L306.305 530.32L178.649 640.113L145.055 689.408L173.05 535.922L278.31 451.897L316.383 399.242Z" fill="#C8973A"/>
<path d="M207.763 682.686L306.305 575.134L261.513 712.935L207.763 810.404V682.686Z" fill="#C8973A"/>
<path d="M375.732 488.868L385.81 392.52L408.206 444.055L441.8 563.93L278.31 733.101L375.732 488.868Z" fill="#C8973A"/>
<path d="M484.352 548.246L370.133 295.051L494.43 388.038L484.352 548.246Z" fill="#C8973A"/>
<path d="M489.951 347.706L308.544 230.072L392.529 226.711L526.904 271.524L551.539 428.37L489.951 347.706Z" fill="#C8973A"/>
<path d="M440.68 211.026L353.336 160.611L464.196 124.76L645.602 242.395L440.68 211.026Z" fill="#C8973A"/>
<path d="M328.701 98.9927L267.112 169.574L412.685 124.76L510.107 56.42L328.701 98.9927Z" fill="#C8973A"/>
<path d="M185.367 113.557L158.492 196.462L176.409 185.258L246.956 165.092L293.987 56.42L339.899 0.403442L185.367 113.557Z" fill="#C8973A"/>
<path d="M148.414 218.868L262.633 179.657L234.638 242.395L278.31 312.976L234.638 375.715L159.612 360.03L129.378 316.337L145.055 298.412H170.81L198.805 271.524L176.409 263.681L129.378 264.802L117.06 274.885L123.779 291.69L81.2268 333.142L117.06 321.939L178.649 403.723H154.013L112.581 431.731L34.1956 417.167L21.8778 386.918L25.2372 368.993L65.5497 344.345L15.1591 351.067L9.56014 368.993L0.601807 344.345L101.383 274.885L96.9039 256.959L148.414 218.868Z" stroke="#F7A900"/>
<path d="M126.018 447.416H44.2737L42.0341 491.109L86.8258 539.283L81.2268 500.072L157.373 474.304L126.018 447.416Z" stroke="#F7A900"/>
<path d="M316.383 399.242L332.06 360.03L342.138 444.055L306.305 530.32L178.649 640.113L145.055 689.408L173.05 535.922L278.31 451.897L316.383 399.242Z" stroke="#F7A900"/>
<path d="M207.763 682.686L306.305 575.134L261.513 712.935L207.763 810.404V682.686Z" stroke="#F7A900"/>
<path d="M375.732 488.868L385.81 392.52L408.206 444.055L441.8 563.93L278.31 733.101L375.732 488.868Z" stroke="#F7A900"/>
<path d="M484.352 548.246L370.133 295.051L494.43 388.038L484.352 548.246Z" stroke="#F7A900"/>
<path d="M489.951 347.706L308.544 230.072L392.529 226.711L526.904 271.524L551.539 428.37L489.951 347.706Z" stroke="#F7A900"/>
<path d="M440.68 211.026L353.336 160.611L464.196 124.76L645.602 242.395L440.68 211.026Z" stroke="#F7A900"/>
<path d="M328.701 98.9927L267.112 169.574L412.685 124.76L510.107 56.42L328.701 98.9927Z" stroke="#F7A900"/>
<path d="M185.367 113.557L158.492 196.462L176.409 185.258L246.956 165.092L293.987 56.42L339.899 0.403442L185.367 113.557Z" stroke="#F7A900"/>
<path d="M738.059 141.918H835.644C859.97 266.637 873.264 335.643 875.527 348.935C875.527 356.854 868.738 365.055 855.161 373.539C855.161 376.367 861.667 381.175 874.678 387.963C883.73 394.75 888.255 403.517 888.255 414.264C892.781 433.354 895.892 449.191 897.59 461.776H898.438C904.661 427.273 908.338 408.325 909.469 404.931C909.469 394.184 902.681 385.135 889.104 377.781V374.388L912.015 359.116C916.965 355.298 920.642 345.965 923.047 331.118C945.675 209.368 957.555 146.302 958.686 141.918H1052.03V346.39C1052.03 358.409 1044.11 368.025 1028.27 375.236L1026.57 377.781V379.478C1026.57 379.903 1032.79 384.427 1045.24 393.053C1049.77 399.275 1052.03 403.8 1052.03 406.628V589.889H984.143V408.325C984.143 398.709 975.941 389.377 959.535 380.327C959.535 379.478 958.969 378.347 957.838 376.933C959.111 374.812 964.768 370.853 974.809 365.055C981.032 359.964 984.143 352.611 984.143 342.996V311.604H983.295C978.203 342.713 973.961 358.268 970.566 358.268C970.566 360.389 962.929 365.479 947.655 373.539L945.109 376.933C945.109 378.913 949.352 383.155 957.838 389.659C961.515 393.477 963.778 398.568 964.626 404.931L925.592 589.889H872.133C870.718 589.889 867.607 577.445 862.798 552.558L826.31 399.841C819.238 390.932 810.753 384.427 800.853 380.327C798.307 378.63 796.61 377.781 795.761 377.781V374.388C807.641 364.348 813.581 357.843 813.581 354.874C814.147 352.611 814.43 350.632 814.43 348.935L806.793 312.452H805.944V343.844C805.944 355.015 798.59 364.631 783.881 372.691L781.336 376.085V377.781C781.336 378.347 787.559 382.872 800.004 391.356C803.964 395.881 805.944 401.255 805.944 407.476V589.889H738.059V405.78C734.806 397.578 726.603 389.942 713.45 382.872C713.45 382.306 713.168 381.458 712.602 380.327C712.602 378.771 719.107 373.681 732.119 365.055C736.079 359.116 738.059 353.177 738.059 347.238V141.918Z" fill="white"/>
<path d="M1073.24 139.373H1139.43V340.451C1139.43 352.47 1131.79 361.803 1116.52 368.449L1113.97 371.842V373.539C1114.54 374.953 1120.48 379.196 1131.79 386.266C1136.89 391.356 1139.43 397.578 1139.43 404.931V484.684C1139.43 504.056 1149.61 516.782 1169.98 522.863C1173.09 523.428 1176.2 523.711 1179.31 523.711C1194.31 523.711 1205.62 516.075 1213.26 500.804C1215.52 496.137 1216.65 490.764 1216.65 484.684V407.476C1216.65 393.902 1209.3 384.003 1194.59 377.781C1194.31 376.65 1192.89 375.519 1190.35 374.388C1190.35 370.994 1195.15 367.035 1204.77 362.51C1212.69 356.995 1216.65 349.076 1216.65 338.754V139.373H1287.08V343.844C1287.08 355.298 1278.88 364.914 1262.47 372.691L1261.62 374.388V376.085C1261.77 376.933 1267.99 381.458 1280.29 389.659C1284.82 394.609 1287.08 400.265 1287.08 406.628V490.622C1287.08 527.812 1267.85 558.073 1229.38 581.404C1213.96 588.757 1198.12 592.434 1181.86 592.434H1175.92C1137.45 592.434 1106.34 572.354 1082.58 532.195C1076.35 516.782 1073.24 502.925 1073.24 490.622V407.476C1073.24 395.316 1065.89 386.266 1051.18 380.327C1048.92 377.64 1047.79 375.66 1047.79 374.388C1064.19 362.934 1072.39 353.884 1072.39 347.238C1072.96 344.269 1073.24 341.44 1073.24 338.754V139.373Z" fill="white"/>
<path d="M1308.3 141.918H1501.77V209.793H1377.03V331.966H1467.83V347.238C1467.83 356.712 1459.91 365.479 1444.07 373.539L1443.22 377.781C1456.65 386.973 1464.29 394.326 1466.13 399.841H1376.18L1377.03 410.022V589.889H1308.3V404.931C1308.3 395.74 1300.38 387.538 1284.54 380.327L1283.69 376.085C1300.09 364.772 1308.3 355.439 1308.3 348.086V141.918Z" fill="white"/>
<path d="M1691 141.918C1692.41 141.918 1695.24 156.907 1699.49 186.885C1717.59 290.676 1726.64 345.541 1726.64 351.48C1726.64 358.55 1720.42 365.903 1707.97 373.539L1707.12 377.781C1726.92 389.659 1736.82 400.406 1736.82 410.022C1737.39 410.729 1747.57 470.684 1767.37 589.889H1696.09L1679.97 487.229H1611.23C1609.68 487.229 1607.13 501.652 1603.6 530.499L1593.41 589.889H1522.98L1554.38 404.083H1553.53C1553.53 403.517 1553.82 403.234 1554.38 403.234C1554.38 395.74 1547.88 388.387 1534.86 381.175V376.933C1546.89 368.59 1555.65 361.237 1561.17 354.874C1564 350.066 1570.5 314.432 1580.69 247.972C1581.25 246.275 1587.47 210.924 1599.35 141.918H1691ZM1645.18 247.972C1636.13 313.301 1631.03 347.521 1629.9 350.632C1627.22 355.864 1622.97 360.389 1617.17 364.207C1606.43 369.863 1601.05 374.105 1601.05 376.933C1615.76 385.417 1623.11 394.467 1623.11 404.083L1620.57 421.051H1669.79C1669.79 400.406 1660.45 386.549 1641.78 379.478L1638.39 376.085V373.539C1651.97 364.207 1658.75 356.854 1658.75 351.48C1658.75 349.783 1659.04 347.804 1659.6 345.541C1650.55 284.313 1646.03 251.79 1646.03 247.972H1645.18Z" fill="white"/>
<path d="M1883.2 136.403H1896.78C1929.87 136.403 1956.74 149.978 1977.39 177.128C1987.15 188.158 1994.22 207.954 1998.61 236.518V250.941H1933.27C1928.74 215.307 1916.01 197.49 1895.08 197.49H1889.14C1870.19 197.49 1858.88 212.196 1855.2 241.609V246.699C1855.2 278.657 1877.83 312.028 1923.08 346.814C1929.31 353.177 1932.42 357.985 1932.42 361.237V362.934C1930.15 369.156 1929.02 372.549 1929.02 373.115V373.964C1929.45 376.226 1939.35 381.882 1958.72 390.932C1973.29 398.709 1984.6 414.547 1992.67 438.444C1998.89 452.443 2002 466.866 2002 481.714C2002 521.449 1987.57 553.123 1958.72 576.738C1940.76 589.182 1918.98 595.403 1893.38 595.403C1842.61 595.403 1807.54 570.233 1788.16 519.893C1781.8 499.248 1778.4 480.3 1777.98 463.049H1842.47C1846.57 490.481 1852.51 508.015 1860.29 515.651C1868.07 526.964 1877.97 532.62 1889.99 532.62C1908.66 532.62 1922.23 522.156 1930.72 501.228C1932.42 495.289 1933.27 488.501 1933.27 480.866C1933.27 453.009 1912.62 424.162 1871.32 394.326C1864.67 390.508 1850.53 384.286 1828.89 375.66C1828.89 374.812 1828.04 373.964 1826.35 373.115C1829.74 366.469 1831.44 362.51 1831.44 361.237V357.843C1830.87 353.177 1822.39 341.016 1805.98 321.361C1792.4 298.029 1785.62 275.122 1785.62 252.638V241.609C1785.62 197.773 1804.85 165.533 1843.32 144.888C1857.6 139.232 1870.9 136.403 1883.2 136.403Z" fill="white"/>
<path d="M2191.23 141.918C2192.65 141.918 2195.47 156.907 2199.72 186.885C2217.82 290.676 2226.87 345.541 2226.87 351.48C2226.87 358.55 2220.65 365.903 2208.2 373.539L2207.35 377.781C2227.15 389.659 2237.05 400.406 2237.05 410.022C2237.62 410.729 2247.8 470.684 2267.6 589.889H2196.32L2180.2 487.229H2111.47C2109.91 487.229 2107.36 501.652 2103.83 530.499L2093.65 589.889H2023.21L2054.61 404.083H2053.76C2053.76 403.517 2054.05 403.234 2054.61 403.234C2054.61 395.74 2048.11 388.387 2035.09 381.175V376.933C2047.12 368.59 2055.88 361.237 2061.4 354.874C2064.23 350.066 2070.73 314.432 2080.92 247.972C2081.48 246.275 2087.71 210.924 2099.59 141.918H2191.23ZM2145.41 247.972C2136.36 313.301 2131.27 347.521 2130.13 350.632C2127.45 355.864 2123.2 360.389 2117.41 364.207C2106.66 369.863 2101.28 374.105 2101.28 376.933C2115.99 385.417 2123.35 394.467 2123.35 404.083L2120.8 421.051H2170.02C2170.02 400.406 2160.68 386.549 2142.01 379.478L2138.62 376.085V373.539C2152.2 364.207 2158.99 356.854 2158.99 351.48C2158.99 349.783 2159.27 347.804 2159.83 345.541C2150.78 284.313 2146.26 251.79 2146.26 247.972H2145.41Z" fill="white"/>
<path d="M643.602 774.123H899.841C903.28 774.123 906.261 773.096 908.784 771.043C911.535 768.989 912.911 765.68 912.911 761.117V758.036C912.911 753.245 911.764 749.936 909.471 748.111C907.408 746.285 904.312 745.373 900.185 745.373H677.996C668.824 745.373 660.799 742.292 653.92 736.131C647.041 729.742 643.602 720.729 643.602 709.092V680.684C643.602 669.047 647.041 660.148 653.92 653.987C660.799 647.598 668.824 644.403 677.996 644.403H949.713V680.684H693.13C689.003 680.684 685.792 681.597 683.499 683.422C681.436 685.019 680.404 688.214 680.404 693.006V696.086C680.404 700.649 681.665 703.958 684.187 706.012C686.939 708.065 690.034 709.092 693.474 709.092H915.319C924.49 709.092 932.516 712.401 939.395 719.018C946.274 725.635 949.713 734.534 949.713 745.715V774.123C949.713 785.76 946.274 794.773 939.395 801.162C932.516 807.323 924.49 810.403 915.319 810.403H643.602V774.123Z" fill="white"/>
<path d="M984.188 680.684V644.403H1290.3V680.684H1155.47V810.403H1118.67V680.684H984.188Z" fill="white"/>
<path d="M1581.01 774.123C1584.45 774.123 1587.43 772.754 1589.96 770.016C1592.71 767.049 1594.08 763.285 1594.08 758.721V644.403H1630.89V774.123C1630.89 780.056 1629.85 785.304 1627.79 789.867C1625.96 794.203 1623.43 797.968 1620.22 801.162C1617.01 804.129 1613.23 806.41 1608.87 808.008C1604.75 809.605 1600.5 810.403 1596.15 810.403H1359.51C1354.93 810.403 1350.57 809.605 1346.44 808.008C1342.32 806.41 1338.65 804.129 1335.44 801.162C1332.23 797.968 1329.59 794.203 1327.53 789.867C1325.69 785.304 1324.77 780.056 1324.77 774.123V644.403H1361.58V758.721C1361.58 763.285 1362.72 767.049 1365.02 770.016C1367.31 772.754 1370.18 774.123 1373.61 774.123H1581.01Z" fill="white"/>
<path d="M1936.73 644.403C1941.09 644.403 1945.33 645.316 1949.46 647.142C1953.82 648.739 1957.6 651.135 1960.81 654.329C1964.02 657.296 1966.54 661.06 1968.38 665.624C1970.44 670.188 1971.47 675.208 1971.47 680.684V774.123C1971.47 780.056 1970.44 785.304 1968.38 789.867C1966.54 794.203 1964.02 797.968 1960.81 801.162C1957.6 804.129 1953.82 806.41 1949.46 808.008C1945.33 809.605 1941.09 810.403 1936.73 810.403H1665.36V644.403H1936.73ZM1921.6 774.123C1925.04 774.123 1928.02 772.754 1930.54 770.016C1933.29 767.049 1934.67 763.285 1934.67 758.721V696.086C1934.67 691.522 1933.52 687.871 1931.23 685.133C1929.17 682.167 1926.07 680.684 1921.94 680.684H1702.16V774.123H1921.6Z" fill="white"/>
<path d="M2043.09 810.403H2005.95V644.403H2043.09V810.403Z" fill="white"/>
<path d="M2348.86 644.403C2353.22 644.403 2357.46 645.316 2361.59 647.142C2365.95 648.739 2369.73 651.135 2372.94 654.329C2376.15 657.296 2378.67 661.06 2380.51 665.624C2382.57 670.188 2383.6 675.208 2383.6 680.684V774.123C2383.6 780.056 2382.57 785.304 2380.51 789.867C2378.67 794.203 2376.15 797.968 2372.94 801.162C2369.73 804.129 2365.95 806.41 2361.59 808.008C2357.46 809.605 2353.22 810.403 2348.86 810.403H2112.23C2107.64 810.403 2103.29 809.605 2099.16 808.008C2095.03 806.41 2091.36 804.129 2088.15 801.162C2084.94 797.968 2082.31 794.203 2080.24 789.867C2078.41 785.304 2077.49 780.056 2077.49 774.123V680.684C2077.49 674.979 2078.41 669.845 2080.24 665.282C2082.31 660.718 2084.94 656.953 2088.15 653.987C2091.36 650.792 2095.03 648.397 2099.16 646.799C2103.29 645.202 2107.64 644.403 2112.23 644.403H2348.86ZM2333.73 774.123C2337.17 774.123 2340.15 772.754 2342.67 770.016C2345.42 767.049 2346.8 763.285 2346.8 758.721V696.086C2346.8 691.522 2345.65 687.871 2343.36 685.133C2341.3 682.167 2338.2 680.684 2334.07 680.684H2127.02C2122.43 680.684 2119.11 682.167 2117.04 685.133C2115.21 687.871 2114.29 691.522 2114.29 696.086V758.721C2114.29 763.285 2115.44 767.049 2117.73 770.016C2120.03 772.754 2122.89 774.123 2126.33 774.123H2333.73Z" fill="white"/>
</svg>
