<svg width="409" height="513" viewBox="0 0 409 513" fill="none" xmlns="http://www.w3.org/2000/svg">
<path d="M94.1021 138.495L166.352 113.709L148.644 153.366L176.269 197.98L148.644 237.637L101.185 227.723L82.0604 200.105L91.9771 188.774H108.269L125.977 171.778L111.81 166.821L82.0604 167.529L74.2687 173.903L78.5187 184.525L51.6021 210.727L74.2687 203.646L113.227 255.341H97.6437L71.4354 273.045L21.8521 263.839L14.0604 244.719L16.1854 233.388L41.6854 217.809L9.81038 222.058L6.26872 233.388L0.602051 217.809L64.3521 173.903L61.5187 162.572L94.1021 138.495Z" fill="#C8973A"/>
<path d="M79.9354 282.96H28.2271L26.8104 310.578L55.1437 341.029L51.6021 316.243L99.7687 299.955L79.9354 282.96Z" fill="#C8973A"/>
<path d="M200.352 252.509L210.269 227.723L216.644 280.835L193.977 335.363L113.227 404.763L91.9771 435.922L109.685 338.904L176.269 285.792L200.352 252.509Z" fill="#C8973A"/>
<path d="M131.644 431.673L193.977 363.69L165.644 450.794L131.644 512.404V431.673Z" fill="#C8973A"/>
<path d="M237.894 309.161L244.269 248.26L258.435 280.835L279.685 356.608L176.269 463.54L237.894 309.161Z" fill="#C8973A"/>
<path d="M306.602 346.694L234.352 186.65L312.977 245.427L306.602 346.694Z" fill="#C8973A"/>
<path d="M310.144 219.933L195.394 145.576L248.519 143.452L333.519 171.778L349.102 270.921L310.144 219.933Z" fill="#C8973A"/>
<path d="M278.977 133.538L223.727 101.67L293.852 79.0093L408.602 153.366L278.977 133.538Z" fill="#C8973A"/>
<path d="M208.144 62.7216L169.185 107.336L261.269 79.0093L322.894 35.8115L208.144 62.7216Z" fill="#C8973A"/>
<path d="M117.477 71.9277L100.477 124.332L111.81 117.25L156.435 104.503L186.185 35.8115L215.227 0.403519L117.477 71.9277Z" fill="#C8973A"/>
<path d="M94.1021 138.495L166.352 113.709L148.644 153.366L176.269 197.98L148.644 237.637L101.185 227.723L82.0604 200.105L91.9771 188.774H108.269L125.977 171.778L111.81 166.821L82.0604 167.529L74.2687 173.903L78.5187 184.525L51.6021 210.727L74.2687 203.646L113.227 255.341H97.6437L71.4354 273.045L21.8521 263.839L14.0604 244.719L16.1854 233.388L41.6854 217.809L9.81038 222.058L6.26872 233.388L0.602051 217.809L64.3521 173.903L61.5187 162.572L94.1021 138.495Z" stroke="#F7A900"/>
<path d="M79.9354 282.96H28.2271L26.8104 310.578L55.1437 341.029L51.6021 316.243L99.7687 299.955L79.9354 282.96Z" stroke="#F7A900"/>
<path d="M200.352 252.509L210.269 227.723L216.644 280.835L193.977 335.363L113.227 404.763L91.9771 435.922L109.685 338.904L176.269 285.792L200.352 252.509Z" stroke="#F7A900"/>
<path d="M131.644 431.673L193.977 363.69L165.644 450.794L131.644 512.404V431.673Z" stroke="#F7A900"/>
<path d="M237.894 309.161L244.269 248.26L258.435 280.835L279.685 356.608L176.269 463.54L237.894 309.161Z" stroke="#F7A900"/>
<path d="M306.602 346.694L234.352 186.65L312.977 245.427L306.602 346.694Z" stroke="#F7A900"/>
<path d="M310.144 219.933L195.394 145.576L248.519 143.452L333.519 171.778L349.102 270.921L310.144 219.933Z" stroke="#F7A900"/>
<path d="M278.977 133.538L223.727 101.67L293.852 79.0093L408.602 153.366L278.977 133.538Z" stroke="#F7A900"/>
<path d="M208.144 62.7216L169.185 107.336L261.269 79.0093L322.894 35.8115L208.144 62.7216Z" stroke="#F7A900"/>
<path d="M117.477 71.9277L100.477 124.332L111.81 117.25L156.435 104.503L186.185 35.8115L215.227 0.403519L117.477 71.9277Z" stroke="#F7A900"/>
</svg>
